<svg xmlns="http://www.w3.org/2000/svg" width="188" height="41" viewBox="0 0 188 41" fill="none">
<path d="M27.6653 17.9089C27.7403 17.5163 27.6669 17.1097 27.4598 16.769L18.4174 1.89745C18.3169 1.73113 18.2099 1.59086 18.0974 1.46936C18.0193 1.34359 17.9446 1.21629 17.8718 1.09199C17.5344 0.516602 17.2347 0.0054884 16.7937 0.0054884H8.15552C7.64976 0.0054884 7.21556 0.354004 7.12148 0.83545L0.029008 38.0992C-0.158849 39.086 0.589563 40.0013 1.58417 40.0013H9.74571C10.5414 40.0013 11.2241 39.4514 11.3693 38.6933L15.5745 17.6936L23.6572 31.5185C24.0282 32.1531 24.9795 31.9867 25.1175 31.2632L27.6653 17.9089Z" fill="white"/>
<path d="M27.6828 38.401L35.0491 0.174286C35.2169 0.0662684 35.4177 0.00414932 35.6311 0.00414932H44.2693C45.2849 0.00414932 46.0554 0.882199 45.9017 1.84689C45.899 1.86327 45.8962 1.87968 45.893 1.89611L38.8449 38.6919C38.6997 39.4501 38.017 40 37.2213 40H29.8515C29.7962 40 29.7404 39.9952 29.6846 39.9859C29.632 39.9878 29.5792 39.9854 29.5264 39.9777C28.7923 39.8718 28.2791 39.383 27.6828 38.401Z" fill="white"/>
<path d="M49.7435 2.65388L48.5476 8.85976C48.4702 9.77704 49.229 10.585 50.2164 10.585H85.6531C86.4596 10.585 87.1519 10.0352 87.2985 9.2772L88.7331 1.89178C88.924 0.908056 88.1342 0 87.0869 0H51.6505C50.8439 0 50.1521 0.549854 50.0048 1.30788L49.7435 2.65388Z" fill="white"/>
<path d="M47.213 15.785L45.6921 23.6778C45.69 24.5422 46.4241 25.278 47.3662 25.278H82.8029C83.6093 25.278 84.3017 24.7282 84.449 23.9702L85.8828 16.5847C86.0737 15.601 85.2839 14.693 84.2367 14.693H48.8003C48.0725 14.693 47.4381 15.1406 47.213 15.785Z" fill="white"/>
<path d="M44.3985 30.3908L42.839 38.4838C42.885 39.3096 43.6009 39.9958 44.5108 39.9958H79.948C80.7544 39.9958 81.4468 39.4457 81.5933 38.6874L83.0247 31.3019C83.2149 30.3184 82.4251 29.4108 81.3786 29.4108H45.9417C45.2568 29.4108 44.6547 29.8072 44.3985 30.3908Z" fill="white"/>
<path d="M131.52 9.27727L132.954 1.89186C133.145 0.908129 132.356 7.24792e-05 131.308 7.24792e-05H95.8783C95.0719 7.24792e-05 94.3804 0.549868 94.233 1.30785L87.0869 38.104C86.8952 39.0878 87.685 39.9959 88.7323 39.9959H96.9818C97.7882 39.9959 98.4798 39.4459 98.6271 38.6878L100.974 26.5863C101.121 25.8281 101.812 25.2781 102.619 25.2781H127.025C127.832 25.2781 128.523 24.7279 128.671 23.9696L130.101 16.5842C130.291 15.6006 129.502 14.693 128.455 14.693H103.282L104.077 10.5851H129.875C130.681 10.5851 131.373 10.0353 131.52 9.27727Z" fill="white"/>
<path d="M146.624 0L145.439 5.97837H144.535L142.108 1.79351L141.278 5.97837H140.188L141.372 0H142.276L144.712 4.18486L145.533 0H146.624Z" fill="#F93B30"/>
<path d="M149.124 0.93092L148.82 2.4853H151.686L151.509 3.39914H148.634L148.312 5.04746H151.661L151.475 5.97837H147.035L148.219 0H152.541L152.355 0.93092H149.124Z" fill="#F93B30"/>
<path d="M162.455 0L159.317 5.97837H158.142L157.549 1.59708L155.181 5.97837H154.006L153.227 0H154.319L154.902 4.54357L157.33 0H158.353L158.937 4.58627L161.364 0H162.455Z" fill="#F93B30"/>
<path d="M140.414 10.539L140.11 12.0934H142.978L142.799 13.0073H139.924L139.602 14.6556H142.952L142.766 15.5865H138.325L139.509 9.60808H143.831L143.645 10.539H140.414Z" fill="#F93B30"/>
<path d="M149.726 11.4102C149.726 11.9852 149.574 12.472 149.27 12.8706C148.965 13.2634 148.539 13.5367 147.992 13.6905L149.049 15.5865H147.882L146.91 13.8357H145.438L145.1 15.5865H143.991L145.176 9.60808H147.476C148.192 9.60808 148.745 9.76752 149.134 10.0864C149.529 10.3995 149.726 10.8408 149.726 11.4102ZM146.935 12.9218C147.471 12.9218 147.885 12.8022 148.178 12.5631C148.471 12.3183 148.618 11.9682 148.618 11.5126C148.618 11.1938 148.508 10.9546 148.288 10.7953C148.074 10.6302 147.764 10.5476 147.358 10.5476H146.098L145.624 12.9218H146.935Z" fill="#F93B30"/>
<path d="M154.348 14.2029H151.37L150.516 15.5865H149.341L153.189 9.60808H154.28L155.752 15.5865H154.661L154.348 14.2029ZM154.145 13.3318L153.544 10.7013L151.912 13.3318H154.145Z" fill="#F93B30"/>
<path d="M139.819 25.28C139.233 25.28 138.726 25.1746 138.297 24.964C137.874 24.7476 137.55 24.4487 137.325 24.0673C137.099 23.6801 136.986 23.2331 136.986 22.7264C136.986 22.0546 137.135 21.4453 137.434 20.8987C137.739 20.3521 138.167 19.9222 138.72 19.6091C139.273 19.2902 139.904 19.1308 140.614 19.1308C141.201 19.1308 141.706 19.239 142.128 19.4554C142.557 19.666 142.884 19.965 143.11 20.3521C143.335 20.7336 143.448 21.1777 143.448 21.6844C143.448 22.3563 143.296 22.9655 142.991 23.5121C142.692 24.0587 142.267 24.4914 141.714 24.8102C141.162 25.1234 140.53 25.28 139.819 25.28ZM139.913 24.3064C140.392 24.3064 140.815 24.1925 141.182 23.9647C141.553 23.7313 141.838 23.421 142.036 23.0338C142.238 22.641 142.34 22.2139 142.34 21.7527C142.34 21.2517 142.179 20.8531 141.858 20.5571C141.542 20.2553 141.094 20.1044 140.513 20.1044C140.034 20.1044 139.608 20.2211 139.236 20.4546C138.869 20.6823 138.587 20.9926 138.39 21.3855C138.193 21.7727 138.094 22.1969 138.094 22.6581C138.094 23.1591 138.252 23.5605 138.567 23.8622C138.884 24.1583 139.332 24.3064 139.913 24.3064Z" fill="#F93B30"/>
<path d="M146.077 20.1471L145.713 21.9662H148.58L148.394 22.9058H145.535L145.079 25.1946H143.98L145.163 19.2162H149.485L149.3 20.1471H146.077Z" fill="#F93B30"/>
<path d="M153.8 20.1471L153.436 21.9662H156.303L156.117 22.9058H153.258L152.802 25.1946H151.702L152.887 19.2162H157.209L157.022 20.1471H153.8Z" fill="#F93B30"/>
<path d="M158.272 19.2162H159.371L158.187 25.1946H157.087L158.272 19.2162Z" fill="#F93B30"/>
<path d="M161.988 20.1557H160.026L160.212 19.2162H165.236L165.041 20.1557H163.079L162.089 25.1946H160.99L161.988 20.1557Z" fill="#F93B30"/>
<path d="M171.313 19.2162L170.13 25.1946H169.224L166.797 21.0098L165.968 25.1946H164.877L166.061 19.2162H166.966L169.402 23.401L170.222 19.2162H171.313Z" fill="#F93B30"/>
<path d="M173.813 20.1471L173.509 21.7015H176.377L176.198 22.6154H173.323L173.001 24.2637H176.351L176.165 25.1946H171.724L172.908 19.2162H177.23L177.044 20.1471H173.813Z" fill="#F93B30"/>
<path d="M179.327 25.28C178.871 25.28 178.434 25.2146 178.016 25.0836C177.599 24.9526 177.272 24.7846 177.036 24.5797L177.501 23.7086C177.749 23.9078 178.042 24.0673 178.38 24.1868C178.724 24.3007 179.074 24.3576 179.429 24.3576C179.863 24.3576 180.207 24.2836 180.461 24.1356C180.72 23.9818 180.85 23.774 180.85 23.5121C180.85 23.3641 180.796 23.2417 180.689 23.1449C180.588 23.0424 180.458 22.9598 180.3 22.8972C180.148 22.8346 179.933 22.7634 179.658 22.6837C179.273 22.5698 178.964 22.4616 178.727 22.3591C178.49 22.251 178.287 22.0915 178.118 21.8809C177.949 21.6702 177.864 21.3969 177.864 21.061C177.864 20.6738 177.971 20.335 178.186 20.0446C178.405 19.7542 178.71 19.5294 179.099 19.3699C179.488 19.2106 179.937 19.1308 180.444 19.1308C180.828 19.1308 181.191 19.1763 181.535 19.2674C181.879 19.3529 182.175 19.4753 182.423 19.6347L181.991 20.5144C181.772 20.3663 181.524 20.2525 181.248 20.1727C180.971 20.093 180.684 20.0532 180.385 20.0532C179.945 20.0532 179.595 20.1358 179.336 20.3009C179.082 20.4603 178.955 20.6738 178.955 20.9414C178.955 21.0951 179.009 21.2233 179.116 21.3258C179.223 21.4282 179.353 21.5108 179.505 21.5734C179.658 21.6303 179.88 21.7043 180.173 21.7954C180.546 21.9036 180.85 22.009 181.087 22.1114C181.324 22.2139 181.524 22.3648 181.687 22.5641C181.857 22.7634 181.941 23.0225 181.941 23.3413C181.941 23.7342 181.831 24.0758 181.611 24.3662C181.396 24.6566 181.09 24.8814 180.689 25.0409C180.295 25.2003 179.841 25.28 179.327 25.28Z" fill="#F93B30"/>
<path d="M184.647 25.28C184.19 25.28 183.753 25.2146 183.336 25.0836C182.918 24.9526 182.592 24.7846 182.355 24.5797L182.82 23.7086C183.068 23.9078 183.361 24.0673 183.699 24.1868C184.043 24.3007 184.393 24.3576 184.748 24.3576C185.182 24.3576 185.527 24.2836 185.78 24.1356C186.039 23.9818 186.169 23.774 186.169 23.5121C186.169 23.3641 186.115 23.2417 186.008 23.1449C185.907 23.0424 185.777 22.9598 185.619 22.8972C185.467 22.8346 185.253 22.7634 184.977 22.6837C184.594 22.5698 184.283 22.4616 184.046 22.3591C183.809 22.251 183.607 22.0915 183.437 21.8809C183.268 21.6702 183.184 21.3969 183.184 21.061C183.184 20.6738 183.29 20.335 183.505 20.0446C183.725 19.7542 184.03 19.5294 184.419 19.3699C184.807 19.2106 185.256 19.1308 185.764 19.1308C186.147 19.1308 186.511 19.1763 186.854 19.2674C187.198 19.3529 187.494 19.4753 187.742 19.6347L187.311 20.5144C187.091 20.3663 186.843 20.2525 186.567 20.1727C186.29 20.093 186.003 20.0532 185.704 20.0532C185.265 20.0532 184.914 20.1358 184.655 20.3009C184.401 20.4603 184.274 20.6738 184.274 20.9414C184.274 21.0951 184.328 21.2233 184.435 21.3258C184.542 21.4282 184.672 21.5108 184.824 21.5734C184.977 21.6303 185.2 21.7043 185.493 21.7954C185.865 21.9036 186.169 22.009 186.406 22.1114C186.643 22.2139 186.843 22.3648 187.007 22.5641C187.176 22.7634 187.26 23.0225 187.26 23.3413C187.26 23.7342 187.151 24.0758 186.93 24.3662C186.717 24.6566 186.409 24.8814 186.008 25.0409C185.614 25.2003 185.16 25.28 184.647 25.28Z" fill="#F93B30"/>
</svg>