<svg xmlns="http://www.w3.org/2000/svg" width="292" height="20" viewBox="0 0 292 20" fill="none">
<path d="M0.26 17V4.04H10.565V17H8.684V5.813H2.141V17H0.26ZM18.501 17.27C17.205 17.27 16.101 16.988 15.189 16.424C14.277 15.854 13.578 15.062 13.092 14.048C12.612 13.034 12.372 11.858 12.372 10.52C12.372 9.182 12.612 8.006 13.092 6.992C13.578 5.978 14.277 5.189 15.189 4.625C16.101 4.055 17.205 3.77 18.501 3.77C19.791 3.77 20.892 4.055 21.804 4.625C22.722 5.189 23.421 5.978 23.901 6.992C24.381 8.006 24.621 9.182 24.621 10.52C24.621 11.858 24.381 13.034 23.901 14.048C23.421 15.062 22.722 15.854 21.804 16.424C20.892 16.988 19.791 17.27 18.501 17.27ZM18.501 15.479C19.419 15.491 20.181 15.29 20.787 14.876C21.399 14.456 21.858 13.874 22.164 13.13C22.47 12.38 22.623 11.51 22.623 10.52C22.623 9.53 22.47 8.666 22.164 7.928C21.858 7.184 21.399 6.605 20.787 6.191C20.181 5.777 19.419 5.567 18.501 5.561C17.583 5.549 16.818 5.75 16.206 6.164C15.6 6.578 15.144 7.16 14.838 7.91C14.532 8.66 14.376 9.53 14.37 10.52C14.364 11.51 14.514 12.377 14.82 13.121C15.126 13.859 15.585 14.435 16.197 14.849C16.815 15.263 17.583 15.473 18.501 15.479ZM25.4077 19.16V15.227C25.8517 15.227 26.2177 15.116 26.5057 14.894C26.7937 14.666 27.0217 14.357 27.1897 13.967C27.3637 13.571 27.4957 13.121 27.5857 12.617C27.6817 12.113 27.7537 11.582 27.8017 11.024C27.8737 10.268 27.9337 9.53 27.9817 8.81C28.0357 8.084 28.0837 7.334 28.1257 6.56C28.1737 5.786 28.2247 4.943 28.2787 4.031L36.5767 4.04V15.227H37.5397V19.16H35.6497V17H27.2887V19.16H25.4077ZM28.4947 15.227H34.6957V5.813L30.0157 5.804C29.9737 6.464 29.9377 7.091 29.9077 7.685C29.8777 8.279 29.8387 8.879 29.7907 9.485C29.7487 10.085 29.6947 10.73 29.6287 11.42C29.5627 12.08 29.4937 12.641 29.4217 13.103C29.3497 13.559 29.2417 13.955 29.0977 14.291C28.9597 14.627 28.7587 14.939 28.4947 15.227ZM38.612 17L42.824 4.04H45.533L49.745 17H47.792L43.913 5.174H44.399L40.565 17H38.612ZM40.799 14.075V12.311H47.567V14.075H40.799ZM51.3596 17V4.04H56.5976C56.7236 4.04 56.8796 4.046 57.0656 4.058C57.2516 4.064 57.4286 4.082 57.5966 4.112C58.3166 4.226 58.9166 4.472 59.3966 4.85C59.8826 5.228 60.2456 5.705 60.4856 6.281C60.7256 6.857 60.8456 7.493 60.8456 8.189C60.8456 8.891 60.7256 9.53 60.4856 10.106C60.2456 10.682 59.8826 11.159 59.3966 11.537C58.9166 11.915 58.3166 12.161 57.5966 12.275C57.4286 12.299 57.2486 12.317 57.0566 12.329C56.8706 12.341 56.7176 12.347 56.5976 12.347H53.2406V17H51.3596ZM53.2406 10.565H56.5256C56.6456 10.565 56.7776 10.559 56.9216 10.547C57.0716 10.535 57.2126 10.514 57.3446 10.484C57.7286 10.394 58.0376 10.229 58.2716 9.989C58.5056 9.743 58.6736 9.461 58.7756 9.143C58.8776 8.825 58.9286 8.507 58.9286 8.189C58.9286 7.871 58.8776 7.556 58.7756 7.244C58.6736 6.926 58.5056 6.647 58.2716 6.407C58.0376 6.161 57.7286 5.993 57.3446 5.903C57.2126 5.867 57.0716 5.843 56.9216 5.831C56.7776 5.819 56.6456 5.813 56.5256 5.813H53.2406V10.565ZM72.8418 17V4.04H70.9338L64.5528 13.67V4.04H62.6448V17H64.5528L70.9338 7.361V17H72.8418ZM84.3663 17.27C83.0703 17.27 81.9663 16.988 81.0543 16.424C80.1423 15.854 79.4433 15.062 78.9573 14.048C78.4773 13.034 78.2373 11.858 78.2373 10.52C78.2373 9.182 78.4773 8.006 78.9573 6.992C79.4433 5.978 80.1423 5.189 81.0543 4.625C81.9663 4.055 83.0703 3.77 84.3663 3.77C85.8603 3.77 87.0963 4.148 88.0743 4.904C89.0583 5.66 89.7423 6.677 90.1263 7.955L88.2183 8.468C87.9663 7.562 87.5163 6.851 86.8683 6.335C86.2263 5.819 85.3923 5.561 84.3663 5.561C83.4483 5.561 82.6833 5.768 82.0713 6.182C81.4593 6.596 80.9973 7.175 80.6853 7.919C80.3793 8.663 80.2263 9.53 80.2263 10.52C80.2203 11.51 80.3703 12.377 80.6763 13.121C80.9883 13.865 81.4503 14.444 82.0623 14.858C82.6803 15.272 83.4483 15.479 84.3663 15.479C85.3923 15.479 86.2263 15.221 86.8683 14.705C87.5163 14.183 87.9663 13.472 88.2183 12.572L90.1263 13.085C89.7423 14.363 89.0583 15.38 88.0743 16.136C87.0963 16.892 85.8603 17.27 84.3663 17.27ZM92.1057 17V4.04H97.1997C98.0217 4.04 98.7117 4.208 99.2697 4.544C99.8277 4.88 100.248 5.315 100.53 5.849C100.812 6.377 100.953 6.935 100.953 7.523C100.953 8.237 100.776 8.849 100.422 9.359C100.074 9.869 99.6027 10.217 99.0087 10.403L98.9907 9.962C99.8187 10.166 100.455 10.565 100.899 11.159C101.343 11.747 101.565 12.434 101.565 13.22C101.565 13.982 101.412 14.645 101.106 15.209C100.806 15.773 100.365 16.214 99.7827 16.532C99.2067 16.844 98.5077 17 97.6857 17H92.1057ZM94.0137 15.209H97.3977C97.8237 15.209 98.2047 15.128 98.5407 14.966C98.8827 14.804 99.1497 14.573 99.3417 14.273C99.5397 13.967 99.6387 13.604 99.6387 13.184C99.6387 12.794 99.5517 12.443 99.3777 12.131C99.2097 11.813 98.9637 11.564 98.6397 11.384C98.3217 11.198 97.9467 11.105 97.5147 11.105H94.0137V15.209ZM94.0137 9.332H97.1727C97.5207 9.332 97.8327 9.263 98.1087 9.125C98.3907 8.981 98.6127 8.777 98.7747 8.513C98.9427 8.243 99.0267 7.919 99.0267 7.541C99.0267 7.037 98.8587 6.623 98.5227 6.299C98.1867 5.975 97.7367 5.813 97.1727 5.813H94.0137V9.332ZM108.765 17.27C107.469 17.27 106.365 16.988 105.453 16.424C104.541 15.854 103.842 15.062 103.356 14.048C102.876 13.034 102.636 11.858 102.636 10.52C102.636 9.182 102.876 8.006 103.356 6.992C103.842 5.978 104.541 5.189 105.453 4.625C106.365 4.055 107.469 3.77 108.765 3.77C110.055 3.77 111.156 4.055 112.068 4.625C112.986 5.189 113.685 5.978 114.165 6.992C114.645 8.006 114.885 9.182 114.885 10.52C114.885 11.858 114.645 13.034 114.165 14.048C113.685 15.062 112.986 15.854 112.068 16.424C111.156 16.988 110.055 17.27 108.765 17.27ZM108.765 15.479C109.683 15.491 110.445 15.29 111.051 14.876C111.663 14.456 112.122 13.874 112.428 13.13C112.734 12.38 112.887 11.51 112.887 10.52C112.887 9.53 112.734 8.666 112.428 7.928C112.122 7.184 111.663 6.605 111.051 6.191C110.445 5.777 109.683 5.567 108.765 5.561C107.847 5.549 107.082 5.75 106.47 6.164C105.864 6.578 105.408 7.16 105.102 7.91C104.796 8.66 104.64 9.53 104.634 10.52C104.628 11.51 104.778 12.377 105.084 13.121C105.39 13.859 105.849 14.435 106.461 14.849C107.079 15.263 107.847 15.473 108.765 15.479ZM116.68 17V4.04H124.96V5.813H118.561V9.449H123.88V11.222H118.561V15.227H124.96V17H116.68ZM127.121 17V4.04H129.029V13.67L135.41 4.04H137.318V17H135.41V7.361L129.029 17H127.121ZM132.251 2.924C131.771 2.924 131.336 2.807 130.946 2.573C130.556 2.339 130.244 2.027 130.01 1.637C129.776 1.247 129.659 0.811999 129.659 0.331999H131.153C131.153 0.631999 131.261 0.89 131.477 1.106C131.693 1.322 131.951 1.43 132.251 1.43C132.557 1.43 132.815 1.322 133.025 1.106C133.241 0.89 133.349 0.631999 133.349 0.331999H134.843C134.843 0.811999 134.726 1.247 134.492 1.637C134.258 2.027 133.943 2.339 133.547 2.573C133.157 2.807 132.725 2.924 132.251 2.924ZM142.777 19.16V15.227C143.221 15.227 143.587 15.116 143.875 14.894C144.163 14.666 144.391 14.357 144.559 13.967C144.733 13.571 144.865 13.121 144.955 12.617C145.051 12.113 145.123 11.582 145.171 11.024C145.243 10.268 145.303 9.53 145.351 8.81C145.405 8.084 145.453 7.334 145.495 6.56C145.543 5.786 145.594 4.943 145.648 4.031L153.946 4.04V15.227H154.909V19.16H153.019V17H144.658V19.16H142.777ZM145.864 15.227H152.065V5.813L147.385 5.804C147.343 6.464 147.307 7.091 147.277 7.685C147.247 8.279 147.208 8.879 147.16 9.485C147.118 10.085 147.064 10.73 146.998 11.42C146.932 12.08 146.863 12.641 146.791 13.103C146.719 13.559 146.611 13.955 146.467 14.291C146.329 14.627 146.128 14.939 145.864 15.227ZM156.881 17V4.04H165.161V5.813H158.762V9.449H164.081V11.222H158.762V15.227H165.161V17H156.881ZM167.323 17V4.04H172.417C173.239 4.04 173.929 4.208 174.487 4.544C175.045 4.88 175.465 5.315 175.747 5.849C176.029 6.377 176.17 6.935 176.17 7.523C176.17 8.237 175.993 8.849 175.639 9.359C175.291 9.869 174.82 10.217 174.226 10.403L174.208 9.962C175.036 10.166 175.672 10.565 176.116 11.159C176.56 11.747 176.782 12.434 176.782 13.22C176.782 13.982 176.629 14.645 176.323 15.209C176.023 15.773 175.582 16.214 175 16.532C174.424 16.844 173.725 17 172.903 17H167.323ZM169.231 15.209H172.615C173.041 15.209 173.422 15.128 173.758 14.966C174.1 14.804 174.367 14.573 174.559 14.273C174.757 13.967 174.856 13.604 174.856 13.184C174.856 12.794 174.769 12.443 174.595 12.131C174.427 11.813 174.181 11.564 173.857 11.384C173.539 11.198 173.164 11.105 172.732 11.105H169.231V15.209ZM169.231 9.332H172.39C172.738 9.332 173.05 9.263 173.326 9.125C173.608 8.981 173.83 8.777 173.992 8.513C174.16 8.243 174.244 7.919 174.244 7.541C174.244 7.037 174.076 6.623 173.74 6.299C173.404 5.975 172.954 5.813 172.39 5.813H169.231V9.332ZM179.891 17L181.529 13.643L177.011 4.04H179.126L182.51 11.645L185.984 4.04H187.991L181.925 17H179.891ZM189.401 17V4.04H191.282V15.227H195.602V4.04H197.483V15.227H201.794V4.04H203.684V17H189.401ZM206.205 17V4.04H208.086V10.088L213.513 4.04H215.853L210.12 10.367L216.276 17H213.864L208.086 10.808V17H206.205ZM217.543 17V4.04H225.823V5.813H219.424V9.449H224.743V11.222H219.424V15.227H225.823V17H217.543ZM236.997 17.27C235.701 17.27 234.597 16.988 233.685 16.424C232.773 15.854 232.074 15.062 231.588 14.048C231.108 13.034 230.868 11.858 230.868 10.52C230.868 9.182 231.108 8.006 231.588 6.992C232.074 5.978 232.773 5.189 233.685 4.625C234.597 4.055 235.701 3.77 236.997 3.77C238.491 3.77 239.727 4.148 240.705 4.904C241.689 5.66 242.373 6.677 242.757 7.955L240.849 8.468C240.597 7.562 240.147 6.851 239.499 6.335C238.857 5.819 238.023 5.561 236.997 5.561C236.079 5.561 235.314 5.768 234.702 6.182C234.09 6.596 233.628 7.175 233.316 7.919C233.01 8.663 232.857 9.53 232.857 10.52C232.851 11.51 233.001 12.377 233.307 13.121C233.619 13.865 234.081 14.444 234.693 14.858C235.311 15.272 236.079 15.479 236.997 15.479C238.023 15.479 238.857 15.221 239.499 14.705C240.147 14.183 240.597 13.472 240.849 12.572L242.757 13.085C242.373 14.363 241.689 15.38 240.705 16.136C239.727 16.892 238.491 17.27 236.997 17.27ZM244.737 17V4.04H255.042V17H253.161V5.813H246.618V17H244.737ZM262.978 17.27C261.682 17.27 260.578 16.988 259.666 16.424C258.754 15.854 258.055 15.062 257.569 14.048C257.089 13.034 256.849 11.858 256.849 10.52C256.849 9.182 257.089 8.006 257.569 6.992C258.055 5.978 258.754 5.189 259.666 4.625C260.578 4.055 261.682 3.77 262.978 3.77C264.268 3.77 265.369 4.055 266.281 4.625C267.199 5.189 267.898 5.978 268.378 6.992C268.858 8.006 269.098 9.182 269.098 10.52C269.098 11.858 268.858 13.034 268.378 14.048C267.898 15.062 267.199 15.854 266.281 16.424C265.369 16.988 264.268 17.27 262.978 17.27ZM262.978 15.479C263.896 15.491 264.658 15.29 265.264 14.876C265.876 14.456 266.335 13.874 266.641 13.13C266.947 12.38 267.1 11.51 267.1 10.52C267.1 9.53 266.947 8.666 266.641 7.928C266.335 7.184 265.876 6.605 265.264 6.191C264.658 5.777 263.896 5.567 262.978 5.561C262.06 5.549 261.295 5.75 260.683 6.164C260.077 6.578 259.621 7.16 259.315 7.91C259.009 8.66 258.853 9.53 258.847 10.52C258.841 11.51 258.991 12.377 259.297 13.121C259.603 13.859 260.062 14.435 260.674 14.849C261.292 15.263 262.06 15.473 262.978 15.479ZM270.893 17V4.04H276.131C276.257 4.04 276.413 4.046 276.599 4.058C276.785 4.064 276.962 4.082 277.13 4.112C277.85 4.226 278.45 4.472 278.93 4.85C279.416 5.228 279.779 5.705 280.019 6.281C280.259 6.857 280.379 7.493 280.379 8.189C280.379 8.891 280.259 9.53 280.019 10.106C279.779 10.682 279.416 11.159 278.93 11.537C278.45 11.915 277.85 12.161 277.13 12.275C276.962 12.299 276.782 12.317 276.59 12.329C276.404 12.341 276.251 12.347 276.131 12.347H272.774V17H270.893ZM272.774 10.565H276.059C276.179 10.565 276.311 10.559 276.455 10.547C276.605 10.535 276.746 10.514 276.878 10.484C277.262 10.394 277.571 10.229 277.805 9.989C278.039 9.743 278.207 9.461 278.309 9.143C278.411 8.825 278.462 8.507 278.462 8.189C278.462 7.871 278.411 7.556 278.309 7.244C278.207 6.926 278.039 6.647 277.805 6.407C277.571 6.161 277.262 5.993 276.878 5.903C276.746 5.867 276.605 5.843 276.455 5.831C276.311 5.819 276.179 5.813 276.059 5.813H272.774V10.565ZM285.409 17V5.813H281.098V4.04H291.601V5.813H287.29V17H285.409Z" fill="white"/>
</svg>