<svg width="99" height="30" viewBox="0 0 99 30" fill="none" xmlns="http://www.w3.org/2000/svg">
<path d="M20.7483 13.4312C20.8045 13.1368 20.7495 12.8318 20.5941 12.5763L13.8126 1.42304C13.7372 1.2983 13.6569 1.1931 13.5726 1.10198C13.514 1.00766 13.458 0.912187 13.4034 0.818968C13.1503 0.387439 12.9256 0.00411612 12.5949 0.00411612H6.11644C5.73713 0.00411612 5.41149 0.265494 5.34093 0.626566L0.0217552 28.5734C-0.119133 29.3135 0.442157 30 1.18809 30H7.30904C7.90581 30 8.4178 29.5876 8.5267 29.019L11.6805 13.2697L17.7423 23.6381C18.0205 24.114 18.734 23.9892 18.8375 23.4466L20.7483 13.4312Z" fill="white"/>
<path d="M20.7614 28.7998L26.286 0.13071C26.4118 0.0496996 26.5624 0.00311184 26.7225 0.00311184H33.2009C33.9625 0.00311184 34.5404 0.661627 34.4251 1.38512C34.4231 1.39741 34.421 1.40971 34.4186 1.42204L29.1327 29.018C29.0238 29.5866 28.5118 29.999 27.9151 29.999H22.3879C22.3464 29.999 22.3046 29.9954 22.2627 29.9884C22.2232 29.9899 22.1837 29.988 22.1441 29.9823C21.5935 29.9028 21.2086 29.5362 20.7614 28.7998Z" fill="white"/>
<path d="M37.3064 1.99034L36.4095 6.6446C36.3514 7.33253 36.9205 7.93851 37.6611 7.93851H64.2377C64.8425 7.93851 65.3617 7.52615 65.4717 6.95767L66.5476 1.41879C66.6908 0.681019 66.0984 0 65.313 0H38.7365C38.1316 0 37.6128 0.412376 37.5024 0.980877L37.3064 1.99034Z" fill="white"/>
<path d="M35.4085 11.8384L34.2679 17.7578C34.2664 18.4061 34.8169 18.9579 35.5234 18.9579H62.1001C62.7049 18.9579 63.2241 18.5455 63.3346 17.977L64.41 12.4381C64.5531 11.7004 63.9608 11.0194 63.1754 11.0194H36.599C36.0531 11.0194 35.5774 11.3551 35.4085 11.8384Z" fill="white"/>
<path d="M33.2978 22.7923L32.1282 28.8619C32.1627 29.4812 32.6996 29.9959 33.382 29.9959H59.959C60.5638 29.9959 61.083 29.5833 61.1929 29.0146L62.2665 23.4757C62.409 22.738 61.8167 22.0574 61.0319 22.0574H34.4551C33.9415 22.0574 33.4899 22.3547 33.2978 22.7923Z" fill="white"/>
<path d="M97.5388 6.95767L98.6141 1.41879C98.7573 0.681019 98.1656 0 97.3802 0H70.8085C70.2037 0 69.685 0.412333 69.5745 0.980799L64.2151 28.577C64.0714 29.3148 64.6637 29.9959 65.4491 29.9959H71.636C72.2408 29.9959 72.7595 29.5834 72.87 29.0148L74.6297 19.939C74.7402 19.3704 75.2589 18.9579 75.8637 18.9579H94.1679C94.7727 18.9579 95.2913 18.5453 95.4018 17.9765L96.4748 12.4376C96.6174 11.7 96.025 11.0194 95.2402 11.0194H76.3609L76.9574 7.93852H96.3049C96.9097 7.93852 97.4289 7.52615 97.5388 6.95767Z" fill="white"/>
</svg>
